<svg id="visual" viewBox="0 0 900 600" width="1000px" height="1000px" xmlns="http://www.w3.org/2000/svg" xmlns:xlink="http://www.w3.org/1999/xlink" version="1.1"><rect x="0" y="0" width="1000px" height="1000px" fill="#d375a5"></rect><path d="M0 333L90 333L90 259L180 259L180 306L270 306L270 301L360 301L360 238L450 238L450 293L540 293L540 327L630 327L630 263L720 263L720 258L810 258L810 332L900 332L900 308L900 601L900 601L810 601L810 601L720 601L720 601L630 601L630 601L540 601L540 601L450 601L450 601L360 601L360 601L270 601L270 601L180 601L180 601L90 601L90 601L0 601Z" fill="#148ac1"></path><path d="M0 368L90 368L90 385L180 385L180 384L270 384L270 377L360 377L360 340L450 340L450 369L540 369L540 362L630 362L630 320L720 320L720 398L810 398L810 322L900 322L900 326L900 601L900 601L810 601L810 601L720 601L720 601L630 601L630 601L540 601L540 601L450 601L450 601L360 601L360 601L270 601L270 601L180 601L180 601L90 601L90 601L0 601Z" fill="#2b83e7"></path><path d="M0 442L90 442L90 408L180 408L180 480L270 480L270 408L360 408L360 466L450 466L450 397L540 397L540 435L630 435L630 465L720 465L720 451L810 451L810 466L900 466L900 438L900 601L900 601L810 601L810 601L720 601L720 601L630 601L630 601L540 601L540 601L450 601L450 601L360 601L360 601L270 601L270 601L180 601L180 601L90 601L90 601L0 601Z" fill="#8d6cf5"></path><path d="M0 509L90 509L90 500L180 500L180 499L270 499L270 535L360 535L360 506L450 506L450 550L540 550L540 481L630 481L630 492L720 492L720 482L810 482L810 539L900 539L900 519L900 601L900 601L810 601L810 601L720 601L720 601L630 601L630 601L540 601L540 601L450 601L450 601L360 601L360 601L270 601L270 601L180 601L180 601L90 601L90 601L0 601Z" fill="#e527dd"></path></svg>